<?xml version="1.0"?>
<svg xmlns="http://www.w3.org/2000/svg" height="512px" viewBox="-2 0 512 512.00007" width="512px"><g><path d="m239.695312 257.296875c3.261719 1.109375 6.613282 1.65625 9.953126 1.65625 4.820312 0 9.613281-1.144531 14.054687-3.414063 15.53125-7.941406 21.976563-27.460937 14.363281-43.507812-3.777344-7.960938-10.351562-13.871094-18.523437-16.648438-7.964844-2.707031-16.488281-2.082031-24.003907 1.757813-15.535156 7.941406-21.976562 27.460937-14.363281 43.507813 3.773438 7.960937 10.351563 13.871093 18.519531 16.648437zm2.199219-47.730469c2.4375-1.246094 5.070313-1.875 7.714844-1.875 1.828125 0 3.664063.300782 5.445313.90625 4.5625 1.550782 8.257812 4.894532 10.402343 9.414063 4.414063 9.296875.777344 20.558593-8.109375 25.097656-4.121094 2.113281-8.796875 2.453125-13.160156.972656-4.5625-1.550781-8.257812-4.894531-10.402344-9.414062-4.410156-9.300781-.773437-20.558594 8.109375-25.101563zm0 0" data-original="#000000" class="active-path" data-old_color="#000000" fill="#202095"/><path d="m475.121094 120.523438c-24.800782-45.023438-67.230469-80.253907-119.472656-99.195313-13.53125-4.902344-28.171876-9.03125-43.519532-12.269531-3.863281-.816406-7.78125-1.453125-11.570312-2.066406-4.75-.769532-9.238282-1.5-13.605469-2.546876-5.285156-1.277343-10.609375-2.300781-15.964844-3.054687-16.105469-2.261719-31.96875-1.761719-47.15625 1.476563-17.097656 3.652343-33.585937 11.234374-47.683593 21.921874-26.207032 19.871094-39.710938 52.140626-36.117188 86.324219.316406 3.03125.753906 6.054688 1.171875 8.976563 1.421875 9.886718 2.761719 19.21875-.375 27.820312-4.816406 13.191406-19.390625 19.773438-33.488281 26.144532-1.765625.796874-3.515625 1.589843-5.238282 2.386718-31.046874 14.402344-58.546874 37.429688-77.433593 64.84375-19.6875 28.574219-28.011719 65.75-23.445313 104.6875 4.363282 37.179688 20.511719 72.878906 44.308594 97.941406 28.617188 30.148438 67.484375 51.460938 112.390625 61.628907 18.972656 4.296875 38.585937 6.4375 58.085937 6.4375 16.472657 0 33.921876.019531 50.742188.019531.238281 0 .480469 0 .71875-.003906 14.894531-.171875 30.5-1.769532 46.382812-4.753906 24.132813-4.535157 43.757813-10.480469 61.761719-18.714844 6.765625-3.09375 13.433594-6.609375 19.828125-10.445313 35.324219-21.195312 64.464844-53.664062 84.277344-93.898437 18.433594-37.4375 28.460938-80.5 29.007812-124.539063.621094-49.957031-11.003906-98.0625-33.605468-139.121093zm-216.609375 373.851562c-10.730469 1.90625-21.59375 3.066406-32.488281 3.503906-21.804688.878906-43.734376-1.125-65.019532-5.945312-42.207031-9.5625-78.636718-29.488282-105.351562-57.628906-21.765625-22.921876-36.550782-55.710938-40.566406-89.960938-4.175782-35.566406 3.308593-69.355469 21.074218-95.140625 17.492188-25.390625 43-46.734375 71.8125-60.101563 1.679688-.777343 3.390625-1.550781 5.113282-2.332031 15.945312-7.203125 34.019531-15.367187 40.847656-34.074219 4.34375-11.898437 2.6875-23.433593 1.082031-34.589843-.417969-2.925781-.816406-5.683594-1.105469-8.453125-3.078125-29.28125 8.390625-56.847656 30.671875-73.742188 12.472657-9.460937 27.054688-16.167968 42.164063-19.394531 7.996094-1.707031 16.210937-2.558594 24.574218-2.558594 5.847657 0 11.765626.417969 17.726563 1.253907 4.855469.683593 9.6875 1.609374 14.488281 2.765624.011719.003907.027344.007813.046875.011719 28.132813 6.789063 55.441407 21.792969 79.351563 43.535157.144531.132812.285156.265624.429687.398437 1.503907 1.371094 2.996094 2.765625 4.46875 4.191406.992188.964844 1.976563 1.933594 2.957031 2.910157 7.09375 7.089843 13.746094 14.585937 19.9375 22.433593 20.261719 25.679688 35.535157 55.132813 44.78125 86.664063 16.105469 54.90625 14.25 117.972656-5.089843 173.027344-2.761719 7.863281-5.855469 15.457031-9.242188 22.78125-21.941406 47.445312-56.644531 83.25-99.511719 102.082031-19.632812 8.628906-42.058593 14.613281-63.152343 18.363281zm236.261719-234.902344c-.523438 41.972656-10.058594 82.964844-27.574219 118.542969-18.625 37.824219-45.917969 68.289063-78.9375 88.101563-5.949219 3.570312-12.160157 6.835937-18.453125 9.714843-14.765625 6.753907-30.785156 11.890625-49.875 15.960938.773437-.292969 1.535156-.601563 2.304687-.90625.25-.101563.507813-.195313.757813-.296875 1.4375-.578125 2.871094-1.171875 4.289062-1.792969 32.878906-14.449219 61.238282-38.097656 83.28125-68.851563.1875-.261718.382813-.515624.566406-.777343.042969-.058594.082032-.117188.121094-.171875 13.21875-18.640625 24.128906-39.863282 32.332032-63.21875 20.285156-57.746094 22.222656-123.929688 5.320312-181.578125-7.972656-27.175781-20.191406-52.890625-36.054688-76.164063-10.292968-15.097656-22.113281-29.175781-35.3125-41.949218-.269531-.261719-.542968-.515626-.816406-.773438-.738281-.707031-1.476562-1.414062-2.21875-2.109375-.027344-.023437-.054687-.046875-.082031-.070313-7.113281-6.640624-14.496094-12.699218-22.097656-18.15625 48.402343 17.90625 87.632812 50.632813 110.570312 92.28125 21.441407 38.945313 32.464844 84.664063 31.878907 132.214844zm0 0" data-original="#000000" class="active-path" data-old_color="#000000" fill="#202095"/><path d="m389.386719 355.695312c17.65625-35.523437 26.5625-75.738281 25.757812-116.292968-.835937-42.207032-12.289062-82.859375-33.125-117.566406-23.226562-38.6875-57.484375-66-96.464843-76.914063-18.6875-5.230469-37.332032-4.253906-55.414063 2.902344-4.074219 1.613281-8.066406 3.558593-11.855469 5.777343-3.324218 1.945313-4.441406 6.222657-2.496094 9.546876 1.949219 3.328124 6.222657 4.441406 9.550782 2.496093 3.175781-1.859375 6.523437-3.492187 9.9375-4.84375 15.394531-6.09375 30.609375-6.890625 46.515625-2.4375 35.535156 9.945313 66.878906 35.039063 88.257812 70.652344 19.585938 32.621094 30.351563 70.890625 31.140625 110.664063.757813 38.316406-7.644531 76.285156-24.300781 109.804687-14.140625 28.460937-34.085937 52.914063-57.679687 70.707031-25.535157 19.265625-54.828126 30.800782-87.066407 34.292969-58.378906 6.308594-103.769531-7.1875-138.78125-41.277344-33.667969-32.78125-43.875-79.371093-26.636719-121.597656 10.753907-26.332031 32.03125-50.199219 59.917969-67.199219 5.644531-3.441406 12.039063-6.238281 18.808594-9.199218 15.144531-6.621094 30.804687-13.472657 40.492187-28.609376 9.472657-14.800781 7.792969-31.085937 6.167969-46.835937-.964843-9.363281-1.875-18.203125-.449219-26.367187 1.714844-9.792969 5.503907-18.929688 11.261719-27.160157 2.210938-3.15625 1.445313-7.507812-1.714843-9.71875-3.152344-2.210937-7.503907-1.445312-9.71875 1.714844-6.941407 9.914063-11.507813 20.9375-13.578126 32.761719-1.757812 10.070312-.703124 20.304687.316407 30.199218 1.441406 13.980469 2.800781 27.1875-4.042969 37.882813-7.402344 11.570313-20.480469 17.289063-34.328125 23.347656-6.898437 3.015625-14.03125 6.136719-20.476563 10.066407-30.417968 18.542968-53.707031 44.769531-65.578124 73.839843-9.492188 23.253907-11.699219 48.351563-6.386719 72.59375 5.289062 24.140625 17.8125 46.371094 36.207031 64.28125 19.957031 19.429688 43.5625 32.957031 70.164062 40.203125 15.910157 4.335938 33.25 6.511719 51.800782 6.511719 9.074218 0 18.433594-.523437 28.054687-1.5625 67.003907-7.25 123.769531-48.316406 155.742188-112.664063zm0 0" data-original="#000000" class="active-path" data-old_color="#000000" fill="#202095"/><path d="m225.347656 182.433594c12.859375 5.492187 25.867188 4.566406 38.449219 3.667968 6.5625-.46875 12.761719-.910156 18.765625-.449218 5.980469.457031 13.253906 3.0625 20.957031 5.820312 9.925781 3.546875 20.714844 7.410156 31.195313 7.410156 5.453125 0 10.820312-1.046874 15.9375-3.726562 8.039062-4.207031 13.082031-11.171875 14.585937-20.136719 4.6875-27.953125-25.289062-66.855469-32.960937-74.988281-20.46875-21.695312-53.917969-40.355469-86.398438-27.671875-18.980468 7.417969-31.976562 24.699219-36.597656 48.664063-1.828125 9.484374-2.585938 19.824218-2.195312 29.902343.625 15.996094 6.769531 26.597657 18.261718 31.507813zm-2.363281-58.765625c2.601563-13.507813 9.570313-31.117188 27.972656-38.304688 26.019531-10.164062 53.820313 5.863281 71.164063 24.246094 11.832031 12.542969 32.339844 45.265625 29.351562 63.101563-.785156 4.683593-3.105468 7.886718-7.296875 10.082031-9.527343 4.988281-22.964843.183593-35.953125-4.464844-8.609375-3.078125-16.742187-5.988281-24.59375-6.59375-2.164062-.164063-4.328125-.234375-6.484375-.234375-4.84375 0-9.648437.34375-14.339843.679688-11.429688.816406-22.21875 1.585937-31.976563-2.582032-4.28125-1.832031-9.265625-5.667968-9.796875-19.21875-.351562-9.027344.320312-18.261718 1.953125-26.710937zm0 0" data-original="#000000" class="active-path" data-old_color="#000000" fill="#202095"/><path d="m363.640625 325.570312c3.605469 1.363282 7.632813-.453124 8.996094-4.058593 5.800781-15.332031 12.261719-38.078125 10.097656-59.394531-2.042969-20.128907-14.546875-40.949219-34.488281-41.789063-22.765625-.941406-38.449219 12.847656-53.625 26.195313-6.507813 5.726562-12.65625 11.132812-19.222656 15.277343-11 6.945313-23.539063 9.839844-35.300782 8.140625-12.226562-1.761718-22.636718-8.234375-30.132812-18.757812l-.203125-.28125c-13.976563-19.425782-32.25-26.917969-51.464844-21.097656-11.769531 3.5625-23.132813 10.820312-35.757813 22.839843-32.832031 31.257813-45.542968 65.710938-37.777343 102.40625 7.3125 34.542969 30.679687 59.46875 67.582031 72.082031 17.675781 6.042969 38.410156 9.128907 59.933594 9.128907 12.777344 0 25.835937-1.089844 38.6875-3.292969 32.140625-5.515625 67.902344-27.777344 91.105468-56.71875 5.519532-6.890625 11.097657-15.210938 16.128907-24.0625 1.902343-3.351562.730469-7.609375-2.621094-9.515625-3.351563-1.902344-7.609375-.730469-9.515625 2.621094-4.671875 8.21875-9.816406 15.902343-14.882812 22.226562-21.191407 26.429688-53.601563 46.722657-82.574219 51.691407-32.273438 5.539062-65.71875 3.609374-91.746094-5.285157-32.453125-11.089843-52.117187-31.871093-58.441406-61.765625-6.695313-31.636718 4.65625-61.714844 33.746093-89.410156 10.984376-10.453125 20.574219-16.679688 30.183594-19.589844 9.234375-2.792968 22.988282-2.308594 36.097656 15.90625l.183594.253906c11.71875 16.453126 29.46875 25.105469 48.253906 25.101563 12.003907 0 24.433594-3.53125 35.96875-10.816406 7.5-4.738281 14.359376-10.769531 20.988282-16.601563 13.710937-12.0625 26.691406-23.460937 43.820312-22.730468 13.332032.5625 20.074219 18.242187 21.191406 29.257812 1.496094 14.726562-1.710937 33.070312-9.265624 53.042969-1.367188 3.605469.449218 7.632812 4.054687 8.996093zm0 0" data-original="#000000" class="active-path" data-old_color="#000000" fill="#202095"/></g> </svg>
