<svg height="512" viewBox="0 0 128 128" width="512" xmlns="http://www.w3.org/2000/svg"><g><path d="m114.85 34.836c-.8-.812-1.639-1.665-2.5-2.565a14.458 14.458 0 0 0 -7.717-4.281 26.209 26.209 0 0 0 -6.081-5.29 1.748 1.748 0 0 0 -1.624-.113c-.84.369-2.389 1.665-2.48 6.077-4.958 1.315-10.174 3.725-15.673 6.282-1.143.531-2.291 1.064-3.442 1.59-7.645 3.494-16.432 7.113-23.948 5.885-14.847-2.45-25.156-2.562-31.512-.345a13.843 13.843 0 0 0 -4.971 2.87c-7.2 2.905-10.548 5.142-10.114 9.781.161 1.666 1.174 4.509 5.853 5.941a39.653 39.653 0 0 0 .138 5.483 99.113 99.113 0 0 1 .176 19.491 33.889 33.889 0 0 0 -.047 7.754c.479 3.347 1.089 7.673 1.5 10.651a1.751 1.751 0 0 0 1.734 1.511h7.21a1.751 1.751 0 0 0 1.737-1.966 43.6 43.6 0 0 1 .95-17.7 33.5 33.5 0 0 0 -.038 7.5c.48 3.3 1.077 7.532 1.5 10.5l.022.158a1.75 1.75 0 0 0 1.733 1.506h7.16a1.749 1.749 0 0 0 1.732-2c-1.093-7.553-1.014-11.579 1.655-19.032a128.367 128.367 0 0 0 15.9-.724c1.935-.172 3.763-.335 5.4-.437.483-.027 1-.054 1.526-.075-.056.856-.117 1.661-.175 2.412a33.936 33.936 0 0 0 -.043 7.689c.481 3.3 1.078 7.532 1.5 10.5l.022.158a1.75 1.75 0 0 0 1.733 1.506h7.134a1.75 1.75 0 0 0 1.732-2c-1.057-7.292-1.023-11.223 1.362-18.151l-.023.211a36.778 36.778 0 0 0 -.371 7.787c.489 3.346 1.1 7.67 1.507 10.646a1.751 1.751 0 0 0 1.734 1.511h7.15a1.749 1.749 0 0 0 1.732-2c-1.305-9.014-.983-13.061 3.74-24.314.913-2 2.214-4.511 3.761-7.253a134.109 134.109 0 0 1 9.585-14.732c.542.247 1.087.487 1.591.706 4.824 2.075 8.684 2.454 11.8 1.156 2.811-1.171 4.859-3.594 6.443-7.62 2.491-6.317-1.781-10.657-7.693-16.664zm-103.956 22.229c-1.344-.528-2.494-1.357-2.622-2.665-.109-1.163-.185-2.282 3.735-4.309-.026.127-.07.246-.092.375-.466 2.298-.807 4.51-1.021 6.599zm17.877 45c-.4-2.822-.9-6.341-1.309-9.168a31.653 31.653 0 0 1 .082-6.958c.066-.85.136-1.779.2-2.777a39.366 39.366 0 0 0 6.428 1.135 34.606 34.606 0 0 0 -1.765 17.768zm36.4 0c-.4-2.822-.9-6.342-1.309-9.175a31.1 31.1 0 0 1 .07-6.913c.052-.675.106-1.389.157-2.145a33.97 33.97 0 0 0 6.284 1.068 34.1 34.1 0 0 0 -1.573 17.16zm54.112-51.841c-1.215 3.088-2.656 4.891-4.533 5.674-2.164.9-5.213.517-9.059-1.137-.919-.4-1.764-.777-2.513-1.137l-6.965-5.165a1.75 1.75 0 0 0 -2.087 2.81l5.585 4.155a138.087 138.087 0 0 0 -9.111 13.935 1.537 1.537 0 0 0 -.153-.032c-1.067-.077-3.268-.225-6.035-.362a1.75 1.75 0 0 0 -.173 3.5c1.8.089 3.338.182 4.488.257-1.011 1.879-1.876 3.6-2.573 5.125-4.673 11.13-5.315 15.9-4.27 24.217h-3.619c-.392-2.822-.89-6.341-1.3-9.165a37.367 37.367 0 0 1 .385-6.899c.117-1.072.228-2.086.3-2.934a1.751 1.751 0 0 0 -2.031-1.866 19.957 19.957 0 0 1 -2.839.257 29.928 29.928 0 0 1 -9.7-1.56c-.027-.011-.092-.036-.119-.045a1.765 1.765 0 0 0 -.553-.095c-.44 0-.895.006-1.351.018a1.748 1.748 0 0 0 -3.473-.259c-.026.161-.051.309-.074.45-1.3.1-2.685.221-4.127.349-3.825.341-8.027.712-12.231.756a1.741 1.741 0 0 0 -.012-.543 46.441 46.441 0 0 0 -1.681-6.014 1.75 1.75 0 0 0 -3.311 1.136 43.477 43.477 0 0 1 1.516 5.367c-.324-.012-.65-.019-.974-.037a35.527 35.527 0 0 1 -10-1.816c-.6-.209-1.225-.463-1.861-.756a1.751 1.751 0 0 0 -2.37.971 46.046 46.046 0 0 0 -3.069 22.678h-3.725c-.392-2.821-.889-6.338-1.294-9.166a31.053 31.053 0 0 1 .073-6.979c.184-2.365.4-5.213.406-8.908q1.9-.834 4.413-1.767a1.75 1.75 0 0 0 -1.217-3.282q-1.773.657-3.267 1.276c-.083-2.2-.242-4.655-.518-7.427a37.918 37.918 0 0 1 -.054-6.359 61.581 61.581 0 0 1 1.147-8.341 6.225 6.225 0 0 1 1.634-3.327c.038-.033.075-.067.111-.1a9.157 9.157 0 0 1 2.913-1.891 36.641 36.641 0 0 1 2.816 3.583 1.75 1.75 0 1 0 2.862-2.015q-1.058-1.5-2.023-2.68c5.942-1.22 14.868-.824 27.15 1.2a24.184 24.184 0 0 0 5.662.206 32.465 32.465 0 0 1 1.246 4.247 1.75 1.75 0 0 0 3.415-.765 36.724 36.724 0 0 0 -1.116-3.941 68.762 68.762 0 0 0 15.188-5.189l1.822 3.87a1.75 1.75 0 1 0 3.166-1.488l-1.806-3.835c.619-.286 1.24-.571 1.856-.857a104.8 104.8 0 0 1 14.4-5.894c.095.821.218 1.692.393 2.657a1.751 1.751 0 0 0 1.72 1.437 1.694 1.694 0 0 0 .315-.029 1.75 1.75 0 0 0 1.408-2.035c-.763-4.193-.59-6.434-.316-7.57 2.309 1.742 5.667 4.883 5.444 7.539a1.75 1.75 0 0 0 3.488.293 6.871 6.871 0 0 0 -.148-2.007 11.355 11.355 0 0 1 2.869 2.18c.88.914 1.728 1.777 2.536 2.6 5.951 6.048 8.516 8.892 6.923 12.926z"/><path d="m108.053 49.24a1.75 1.75 0 0 0 -1.383 3.215 14.62 14.62 0 0 0 5.472 1.417 1.75 1.75 0 0 0 0-3.5 11.068 11.068 0 0 1 -4.089-1.132z"/><path d="m85.313 53.67-2.556-5.428a1.75 1.75 0 0 0 -3.166 1.491l2.556 5.429a1.75 1.75 0 0 0 3.166-1.492z"/><path d="m87.87 59.1a1.75 1.75 0 1 0 -3.17 1.49l2.556 5.428a1.75 1.75 0 0 0 1.584 1 1.731 1.731 0 0 0 .744-.168 1.748 1.748 0 0 0 .838-2.328z"/><path d="m66.236 68.809c-1.457.075-2.782.182-3.992.313.024-.389.057-.786.076-1.171a1.75 1.75 0 0 0 -3.495-.178c-.1 1.917-.254 3.9-.465 5.889a1.749 1.749 0 0 0 1.556 1.924 1.686 1.686 0 0 0 .187.01 1.75 1.75 0 0 0 1.738-1.565c.048-.455.083-.905.125-1.359 1.3-.159 2.788-.282 4.45-.368a1.75 1.75 0 1 0 -.18-3.5z"/><path d="m78.375 68.733c-1.929-.051-3.782-.078-5.507-.078h-.548a1.75 1.75 0 0 0 .005 3.5h.543c1.7 0 3.516.026 5.413.077h.048a1.75 1.75 0 0 0 .046-3.5z"/><path d="m34.759 63.246a1.75 1.75 0 1 0 -3.157 1.51c.877 1.834 1.695 3.651 2.431 5.4a1.75 1.75 0 1 0 3.227-1.356c-.76-1.8-1.599-3.671-2.501-5.554z"/><path d="m29.559 68.156c-2 .6-3.944 1.209-5.776 1.811a1.75 1.75 0 0 0 .545 3.413 1.732 1.732 0 0 0 .546-.088c1.8-.592 3.719-1.192 5.691-1.784a1.75 1.75 0 1 0 -1.006-3.352z"/><path d="m36.186 57.415a42.068 42.068 0 0 1 -4.956-1.026c-.735-1.339-1.475-2.648-2.212-3.88a1.75 1.75 0 1 0 -3 1.8c.97 1.619 1.949 3.354 2.91 5.155a1.68 1.68 0 0 0 2.541.6q1.858.447 4.19.808a1.733 1.733 0 0 0 .267.02 1.75 1.75 0 0 0 .263-3.48z"/><path d="m58.988 62.26a1.749 1.749 0 0 0 1.7 1.352h.025a1.75 1.75 0 0 0 1.725-1.775c-.03-2.146-.143-4.211-.336-6.139a1.75 1.75 0 0 0 -3.482.346c.087.876.155 1.786.207 2.717h-.076c-1.19 0-2.866-.011-4.836-.053a1.75 1.75 0 0 0 -.075 3.5c2 .042 3.7.053 4.911.053z"/><path d="m47.964 58.5c-2.095-.1-4.089-.238-5.925-.4a1.75 1.75 0 1 0 -.308 3.486c1.882.166 3.92.3 6.059.41h.088a1.75 1.75 0 0 0 .086-3.5z"/></g></svg>