<?xml version="1.0"?>
<svg xmlns="http://www.w3.org/2000/svg" width="512" height="512" viewBox="0 0 128 128"><g><path d="M119.966,78.728a1.751,1.751,0,0,0-2.571-.857l-5,3.164a11.591,11.591,0,0,0-10.324-1.972,137.334,137.334,0,0,1-76.142,0,11.585,11.585,0,0,0-10.323,1.973l-5-3.164a1.751,1.751,0,0,0-2.571.857l-3.17,8.33a1.75,1.75,0,0,0,1.3,2.339l5.586,1.1A10.232,10.232,0,0,0,12.71,93.4a11.869,11.869,0,0,0,7.372,5.952A158.541,158.541,0,0,0,64,105.566a158.541,158.541,0,0,0,43.918-6.21A11.869,11.869,0,0,0,115.29,93.4a10.232,10.232,0,0,0,.961-2.911l5.586-1.1a1.75,1.75,0,0,0,1.3-2.339ZM10.544,81.974l2.66,1.683a10.377,10.377,0,0,0-.994,1.975,9.259,9.259,0,0,0-.372,1.312l-2.964-.582ZM106.95,95.993h0a154.916,154.916,0,0,1-85.9,0,8.356,8.356,0,0,1-5.213-4.162,6.5,6.5,0,0,1-.708-2.8V89a5.821,5.821,0,0,1,.361-2.14A7.575,7.575,0,0,1,22.673,82.1a8.322,8.322,0,0,1,2.288.323,140.81,140.81,0,0,0,78.076,0,7.754,7.754,0,0,1,9.476,4.432,5.831,5.831,0,0,1,.359,2.135v.037a6.531,6.531,0,0,1-.709,2.8A8.359,8.359,0,0,1,106.95,95.993Zm9.213-9.049a9.259,9.259,0,0,0-.372-1.312,10.41,10.41,0,0,0-.995-1.975l2.66-1.683,1.67,4.388Z"/><path d="M64,90.152a1.75,1.75,0,0,0-1.75,1.75v6a1.75,1.75,0,0,0,3.5,0v-6A1.75,1.75,0,0,0,64,90.152Z"/><path d="M80.49,90.88a1.75,1.75,0,0,0-3.455.565L78,97.366a1.751,1.751,0,0,0,1.726,1.468,1.726,1.726,0,0,0,.284-.023A1.75,1.75,0,0,0,81.458,96.8Z"/><path d="M95.247,87.878A1.75,1.75,0,1,0,91.931,89l1.915,5.686a1.75,1.75,0,1,0,3.316-1.117Z"/><path d="M49.521,89.436a1.746,1.746,0,0,0-2.01,1.444L46.542,96.8a1.75,1.75,0,0,0,1.445,2.009,1.726,1.726,0,0,0,.284.023A1.752,1.752,0,0,0,50,97.366l.967-5.921A1.749,1.749,0,0,0,49.521,89.436Z"/><path d="M34.97,86.779a1.749,1.749,0,0,0-2.217,1.1l-1.915,5.687a1.75,1.75,0,1,0,3.316,1.117L36.069,89A1.749,1.749,0,0,0,34.97,86.779Z"/><path d="M119.966,51.147a1.751,1.751,0,0,0-2.571-.856l-5,3.165a11.589,11.589,0,0,0-10.322-1.972,137.307,137.307,0,0,1-76.142,0,11.587,11.587,0,0,0-10.321,1.973l-5-3.165a1.751,1.751,0,0,0-2.571.856l-3.17,8.331a1.75,1.75,0,0,0,1.3,2.339l5.586,1.1a10.257,10.257,0,0,0,.962,2.913,11.869,11.869,0,0,0,7.371,5.951A158.578,158.578,0,0,0,64,77.987a158.565,158.565,0,0,0,43.917-6.209,11.868,11.868,0,0,0,7.372-5.951,10.257,10.257,0,0,0,.962-2.913l5.586-1.1a1.75,1.75,0,0,0,1.3-2.339ZM10.544,54.394l2.661,1.684a10.381,10.381,0,0,0-.995,1.975,9.284,9.284,0,0,0-.372,1.311l-2.964-.581ZM106.95,68.415h0a154.935,154.935,0,0,1-85.9,0,8.363,8.363,0,0,1-5.213-4.162,6.5,6.5,0,0,1-.708-2.8v-.03a5.83,5.83,0,0,1,.361-2.139,7.575,7.575,0,0,1,7.184-4.755,8.316,8.316,0,0,1,2.288.323,140.8,140.8,0,0,0,78.076,0,7.755,7.755,0,0,1,9.476,4.432,5.821,5.821,0,0,1,.359,2.133v.038a6.518,6.518,0,0,1-.709,2.8A8.365,8.365,0,0,1,106.95,68.415Zm9.213-9.051a9.367,9.367,0,0,0-.372-1.31,10.335,10.335,0,0,0-1-1.976l2.661-1.684,1.67,4.389Z"/><path d="M64,62.573a1.75,1.75,0,0,0-1.75,1.75v6a1.75,1.75,0,0,0,3.5,0v-6A1.75,1.75,0,0,0,64,62.573Z"/><path d="M80.49,63.3a1.75,1.75,0,0,0-3.455.564L78,69.788a1.752,1.752,0,0,0,1.726,1.468,1.728,1.728,0,0,0,.284-.024,1.75,1.75,0,0,0,1.445-2.009Z"/><path d="M95.247,60.3a1.75,1.75,0,1,0-3.316,1.117L93.846,67.1A1.75,1.75,0,0,0,95.5,68.3a1.731,1.731,0,0,0,.558-.092,1.749,1.749,0,0,0,1.1-2.217Z"/><path d="M49.521,61.857a1.746,1.746,0,0,0-2.01,1.444l-.969,5.922a1.75,1.75,0,0,0,1.445,2.009,1.728,1.728,0,0,0,.284.024A1.752,1.752,0,0,0,50,69.788l.967-5.921A1.75,1.75,0,0,0,49.521,61.857Z"/><path d="M34.97,59.2a1.751,1.751,0,0,0-2.217,1.1l-1.915,5.686A1.75,1.75,0,1,0,34.154,67.1l1.915-5.687A1.749,1.749,0,0,0,34.97,59.2Z"/><path d="M6.163,34.247l5.587,1.1a10.223,10.223,0,0,0,.96,2.9A11.872,11.872,0,0,0,20.082,44.2,158.578,158.578,0,0,0,64,50.409,158.578,158.578,0,0,0,107.918,44.2a11.865,11.865,0,0,0,7.371-5.952,10.226,10.226,0,0,0,.961-2.9l5.587-1.1a1.75,1.75,0,0,0,1.3-2.339l-3.17-8.34a1.75,1.75,0,0,0-2.571-.857l-5,3.166a11.6,11.6,0,0,0-10.321-1.972,137.307,137.307,0,0,1-76.142,0,11.583,11.583,0,0,0-10.32,1.972l-5-3.166a1.75,1.75,0,0,0-2.571.857l-3.17,8.34a1.75,1.75,0,0,0,1.3,2.339Zm111.292-7.433,1.672,4.4-2.963.581a9.246,9.246,0,0,0-.373-1.318,10.4,10.4,0,0,0-1-1.977Zm-92.494.455a140.81,140.81,0,0,0,78.076,0,7.757,7.757,0,0,1,9.476,4.433,5.828,5.828,0,0,1,.359,2.143v.034a6.527,6.527,0,0,1-.709,2.8,8.359,8.359,0,0,1-5.213,4.162h0a154.916,154.916,0,0,1-85.9,0,8.356,8.356,0,0,1-5.213-4.162,6.5,6.5,0,0,1-.708-2.8v-.027a5.824,5.824,0,0,1,.361-2.149,7.574,7.574,0,0,1,7.184-4.754A8.279,8.279,0,0,1,24.961,27.269Zm-14.416-.455L13.206,28.5a10.373,10.373,0,0,0-1,1.977,9.358,9.358,0,0,0-.374,1.319l-2.963-.582Z"/><path d="M64,44.5a1.75,1.75,0,0,0,1.75-1.75v-6a1.75,1.75,0,0,0-3.5,0v6A1.75,1.75,0,0,0,64,44.5Z"/><path d="M78,42.209a1.752,1.752,0,0,0,1.726,1.469,1.728,1.728,0,0,0,.284-.024,1.75,1.75,0,0,0,1.445-2.008l-.968-5.922a1.75,1.75,0,1,0-3.455.563Z"/><path d="M93.846,39.525a1.75,1.75,0,1,0,3.316-1.117l-1.915-5.686a1.75,1.75,0,1,0-3.316,1.117Z"/><path d="M47.987,43.654a1.728,1.728,0,0,0,.284.024A1.753,1.753,0,0,0,50,42.209l.967-5.921a1.749,1.749,0,1,0-3.453-.565l-.969,5.923A1.75,1.75,0,0,0,47.987,43.654Z"/><path d="M31.937,40.625a1.748,1.748,0,0,0,2.217-1.1l1.915-5.686a1.75,1.75,0,1,0-3.316-1.117l-1.915,5.686A1.75,1.75,0,0,0,31.937,40.625Z"/></g></svg>
