<?xml version="1.0"?>
<svg xmlns="http://www.w3.org/2000/svg" xmlns:xlink="http://www.w3.org/1999/xlink" version="1.1" id="Capa_1" x="0px" y="0px" viewBox="0 0 480 480" style="enable-background:new 0 0 480 480;" xml:space="preserve" width="512px" height="512px"><g><g>
	<g>
		<path d="M425.648,87.136l-84.96-84.8C339.189,0.841,337.158,0,335.04,0H170c-2.181,0-4.267,0.89-5.776,2.464l-110,114.72    c-1.427,1.49-2.224,3.473-2.224,5.536v249.52c-0.001,2.258,0.952,4.411,2.624,5.928l110,99.76    c1.472,1.334,3.389,2.073,5.376,2.072h106c2.09,0.008,4.1-0.802,5.6-2.256l72-69.84c1.543-1.512,2.408-3.584,2.4-5.744V285.784    l69.6-67.48c1.543-1.512,2.408-3.584,2.4-5.744V92.8C428,90.674,427.153,88.637,425.648,87.136z M412,209.168l-69.6,67.488    c-1.543,1.512-2.408,3.584-2.4,5.744v116.376L272.8,464h-99.712L68,368.696v-242.76L173.416,16h158.312L412,96.12V209.168z" data-original="#000000" class="active-path" data-old_color="#000000" fill="#202095"/>
	</g>
</g><g>
	<g>
		<path d="M279.52,94.8c-20.933,0.022-37.898,16.987-37.92,37.92c0,20.943,16.977,37.92,37.92,37.92s37.92-16.977,37.92-37.92    C317.44,111.777,300.463,94.8,279.52,94.8z M279.52,154.64c-12.106,0-21.92-9.814-21.92-21.92s9.814-21.92,21.92-21.92    c12.101,0.013,21.907,9.819,21.92,21.92C301.44,144.826,291.626,154.64,279.52,154.64z" data-original="#000000" class="active-path" data-old_color="#000000" fill="#202095"/>
	</g>
</g><g>
	<g>
		<path d="M361.6,115.16l-50.008-48.88c-1.497-1.463-3.507-2.282-5.6-2.28H196c-2.093-0.002-4.103,0.817-5.6,2.28l-80,78.24    c-1.537,1.506-2.402,3.568-2.4,5.72V248c0,4.418,3.582,8,8,8h170c2.093,0.002,4.104-0.817,5.6-2.28l70-68.48    c1.537-1.506,2.402-3.568,2.4-5.72v-58.64C364.002,118.728,363.137,116.666,361.6,115.16z M348,176.152L282.736,240H124v-86.4    L199.256,80h103.488L348,124.248V176.152z" data-original="#000000" class="active-path" data-old_color="#000000" fill="#202095"/>
	</g>
</g><g>
	<g>
		<path d="M292,296H124c-4.418,0-8,3.582-8,8v50c0.007,2.098,0.837,4.109,2.312,5.6l69.2,70c1.498,1.529,3.547,2.393,5.688,2.4    h59.28c2.141-0.007,4.19-0.871,5.688-2.4l39.52-40c1.475-1.491,2.305-3.502,2.312-5.6v-80C300,299.582,296.418,296,292,296z     M284,380.712L249.136,416h-52.592L132,350.712V312h152V380.712z" data-original="#000000" class="active-path" data-old_color="#000000" fill="#202095"/>
	</g>
</g></g> </svg>
